<?xml version="1.0" encoding="UTF-8"?>
<!DOCTYPE svg PUBLIC "-//W3C//DTD SVG 1.1//EN" "http://www.w3.org/Graphics/SVG/1.1/DTD/svg11.dtd">
<svg xmlns="http://www.w3.org/2000/svg" version="1.1" width="600px" height="600px" style="shape-rendering:geometricPrecision; text-rendering:geometricPrecision; image-rendering:optimizeQuality; fill-rule:evenodd; clip-rule:evenodd" xmlns:xlink="http://www.w3.org/1999/xlink">
<g><path style="opacity:1" fill="#fefefe" d="M -0.5,-0.5 C 199.5,-0.5 399.5,-0.5 599.5,-0.5C 599.5,99.5 599.5,199.5 599.5,299.5C 565.5,299.5 531.5,299.5 497.5,299.5C 395.177,230.696 292.677,162.03 190,93.5C 189.5,162.166 189.333,230.833 189.5,299.5C 126.167,299.5 62.8333,299.5 -0.5,299.5C -0.5,199.5 -0.5,99.5 -0.5,-0.5 Z"/></g>
<g><path style="opacity:1" fill="#12457e" d="M 497.5,299.5 C 394.943,367.699 292.443,436.032 190,504.5C 189.5,436.167 189.333,367.834 189.5,299.5C 189.333,230.833 189.5,162.166 190,93.5C 292.677,162.03 395.177,230.696 497.5,299.5 Z"/></g>
<g><path style="opacity:1" fill="#fdfdfe" d="M 274.5,332.5 C 275.492,325.352 275.825,318.019 275.5,310.5C 273.167,310.5 270.833,310.5 268.5,310.5C 268.5,303.167 268.5,295.833 268.5,288.5C 278.833,288.5 289.167,288.5 299.5,288.5C 299.5,313.5 299.5,338.5 299.5,363.5C 296.15,363.665 292.817,363.498 289.5,363C 288.145,359.788 286.645,356.622 285,353.5C 277.877,363.1 268.377,366.6 256.5,364C 252.637,362.819 249.137,360.986 246,358.5C 243.752,355.672 241.752,352.672 240,349.5C 239.156,345.789 238.156,342.123 237,338.5C 236.833,325 236.667,311.5 236.5,298C 236.366,283.115 236.866,268.282 238,253.5C 241.351,242.817 248.517,236.317 259.5,234C 268.444,232.839 277.11,233.839 285.5,237C 292.019,241.529 296.185,247.695 298,255.5C 299.725,263.073 300.558,270.74 300.5,278.5C 291.833,278.5 283.167,278.5 274.5,278.5C 274.666,272.491 274.499,266.491 274,260.5C 270.333,256.5 266.667,256.5 263,260.5C 261.851,273.075 261.351,285.742 261.5,298.5C 261.667,310.5 261.833,322.5 262,334.5C 262.837,336.351 263.671,338.184 264.5,340C 271.129,341.869 274.462,339.369 274.5,332.5 Z"/></g>
<g><path style="opacity:1" fill="#fafbfc" d="M 309.5,234.5 C 318.167,234.5 326.833,234.5 335.5,234.5C 335.5,270.167 335.5,305.833 335.5,341.5C 344.5,341.5 353.5,341.5 362.5,341.5C 362.5,348.833 362.5,356.167 362.5,363.5C 344.833,363.5 327.167,363.5 309.5,363.5C 309.5,320.5 309.5,277.5 309.5,234.5 Z"/></g>
<g><path style="opacity:1" fill="#d6141a" d="M -0.5,299.5 C 62.8333,299.5 126.167,299.5 189.5,299.5C 189.333,367.834 189.5,436.167 190,504.5C 292.443,436.032 394.943,367.699 497.5,299.5C 531.5,299.5 565.5,299.5 599.5,299.5C 599.5,399.5 599.5,499.5 599.5,599.5C 399.5,599.5 199.5,599.5 -0.5,599.5C -0.5,499.5 -0.5,399.5 -0.5,299.5 Z"/></g>
<g><path style="opacity:1" fill="#5b7ea5" d="M 268.5,310.5 C 270.833,310.5 273.167,310.5 275.5,310.5C 275.825,318.019 275.492,325.352 274.5,332.5C 274.5,325.5 274.5,318.5 274.5,311.5C 272.265,311.795 270.265,311.461 268.5,310.5 Z"/></g>
<style>
  :root {
    border-radius: 10%;
  }
</style>
</svg>
